<?xml version="1.0" encoding="UTF-8" standalone="no"?>
<!-- Created with Inkscape (http://www.inkscape.org/) -->

<svg
   xmlns:dc="http://purl.org/dc/elements/1.1/"
   xmlns:cc="http://creativecommons.org/ns#"
   xmlns:rdf="http://www.w3.org/1999/02/22-rdf-syntax-ns#"
   xmlns:svg="http://www.w3.org/2000/svg"
   xmlns="http://www.w3.org/2000/svg"
   xmlns:sodipodi="http://sodipodi.sourceforge.net/DTD/sodipodi-0.dtd"
   xmlns:inkscape="http://www.inkscape.org/namespaces/inkscape"
   width="14.047117mm"
   height="18.933121mm"
   viewBox="0 0 14.047117 18.933121"
   version="1.1"
   id="svg2561"
   inkscape:version="0.92.5 (2060ec1f9f, 2020-04-08)"
   sodipodi:docname="favicon.svg"
   inkscape:export-filename="C:\Laravel\fecipan_2020\public\imagens\nav-logo.png"
   inkscape:export-xdpi="120"
   inkscape:export-ydpi="120">
  <defs
     id="defs2555" />
  <sodipodi:namedview
     id="base"
     pagecolor="#ffffff"
     bordercolor="#666666"
     borderopacity="1.0"
     inkscape:pageopacity="0.0"
     inkscape:pageshadow="2"
     inkscape:zoom="3.959798"
     inkscape:cx="113.94151"
     inkscape:cy="13.179877"
     inkscape:document-units="mm"
     inkscape:current-layer="layer1"
     showgrid="false"
     fit-margin-top="0"
     fit-margin-left="0"
     fit-margin-right="0"
     fit-margin-bottom="0"
     inkscape:window-width="1293"
     inkscape:window-height="745"
     inkscape:window-x="65"
     inkscape:window-y="-8"
     inkscape:window-maximized="1" />
  <metadata
     id="metadata2558">
    <rdf:RDF>
      <cc:Work
         rdf:about="">
        <dc:format>image/svg+xml</dc:format>
        <dc:type
           rdf:resource="http://purl.org/dc/dcmitype/StillImage" />
        <dc:title />
      </cc:Work>
    </rdf:RDF>
  </metadata>
  <g
     inkscape:label="Camada 1"
     inkscape:groupmode="layer"
     id="layer1"
     transform="translate(-21.702632,-90.985819)">
    <path
       d="m 25.977734,99.739647 c 0,0.222179 -0.184997,0.407103 -0.406788,0.407103 h -3.257409 c -0.222285,0 -0.407388,-0.184924 -0.407388,-0.407103 V 96.48252 c 0,-0.221968 0.185103,-0.40707 0.407388,-0.40707 h 3.257409 c 0.221791,0 0.406788,0.185102 0.406788,0.40707 z"
       style="fill:#32a041;fill-opacity:1;fill-rule:nonzero;stroke:none;stroke-width:0.35277775"
       id="path5658"
       inkscape:connector-curvature="0" />
    <path
       d="m 30.863847,99.739647 c 0,0.222179 -0.184891,0.407103 -0.406788,0.407103 h -3.257514 c -0.222286,0 -0.407318,-0.184924 -0.407318,-0.407103 V 96.48252 c 0,-0.221968 0.185032,-0.40707 0.407318,-0.40707 h 3.257514 c 0.221897,0 0.406788,0.185102 0.406788,0.40707 z"
       style="fill:#008000;fill-opacity:1;fill-rule:nonzero;stroke:none;stroke-width:0.35277775"
       id="path5660"
       inkscape:connector-curvature="0" />
    <path
       d="m 30.863847,99.739647 c 0,0.222179 -0.184891,0.407103 -0.406788,0.407103 h -3.257514 c -0.222286,0 -0.407318,-0.184924 -0.407318,-0.407103 V 96.48252 c 0,-0.221968 0.185032,-0.40707 0.407318,-0.40707 h 3.257514 c 0.221897,0 0.406788,0.185102 0.406788,0.40707 z"
       style="fill:#32a041;fill-opacity:1;fill-rule:nonzero;stroke:none;stroke-width:0.35277775"
       id="path5662"
       inkscape:connector-curvature="0" />
    <path
       d="m 35.749749,94.853639 c 0,0.222109 -0.184891,0.407106 -0.406718,0.407106 h -3.257479 c -0.222215,0 -0.407106,-0.184997 -0.407106,-0.407106 v -3.257197 c 0,-0.222003 0.184891,-0.407106 0.407106,-0.407106 h 3.257479 c 0.221827,0 0.406718,0.185103 0.406718,0.407106 z"
       style="fill:#32a041;fill-opacity:1;fill-rule:nonzero;stroke:none;stroke-width:0.35277775"
       id="path5664"
       inkscape:connector-curvature="0" />
    <path
       d="m 35.749749,104.62562 c 0,0.22221 -0.184891,0.40721 -0.406718,0.40721 h -3.257479 c -0.222215,0 -0.407106,-0.185 -0.407106,-0.40721 v -3.25709 c 0,-0.22201 0.184891,-0.40711 0.407106,-0.40711 h 3.257479 c 0.221827,0 0.406718,0.1851 0.406718,0.40711 z"
       style="fill:#32a041;fill-opacity:1;fill-rule:nonzero;stroke:none;stroke-width:0.35277775"
       id="path5666"
       inkscape:connector-curvature="0" />
    <path
       d="m 30.863847,94.853639 c 0,0.222109 -0.184891,0.407106 -0.406788,0.407106 h -3.257514 c -0.222286,0 -0.407318,-0.184997 -0.407318,-0.407106 v -3.257197 c 0,-0.222003 0.185032,-0.407106 0.407318,-0.407106 h 3.257514 c 0.221897,0 0.406788,0.185103 0.406788,0.407106 z"
       style="fill:#32a041;fill-opacity:1;fill-rule:nonzero;stroke:none;stroke-width:0.35277775"
       id="path5668"
       inkscape:connector-curvature="0" />
    <path
       d="m 30.863847,109.51173 c 0,0.22222 -0.184891,0.40721 -0.406788,0.40721 h -3.257514 c -0.222286,0 -0.407318,-0.18499 -0.407318,-0.40721 v -3.25709 c 0,-0.222 0.185032,-0.40711 0.407318,-0.40711 h 3.257514 c 0.221897,0 0.406788,0.18511 0.406788,0.40711 z"
       style="fill:#32a041;fill-opacity:1;fill-rule:nonzero;stroke:none;stroke-width:0.35277775"
       id="path5670"
       inkscape:connector-curvature="0" />
    <path
       d="m 30.863847,104.62562 c 0,0.22221 -0.184891,0.40721 -0.406788,0.40721 h -3.257514 c -0.222286,0 -0.407318,-0.185 -0.407318,-0.40721 v -3.25709 c 0,-0.22201 0.185032,-0.40711 0.407318,-0.40711 h 3.257514 c 0.221897,0 0.406788,0.1851 0.406788,0.40711 z"
       style="fill:#32a041;fill-opacity:1;fill-rule:nonzero;stroke:none;stroke-width:0.35277775"
       id="path5672"
       inkscape:connector-curvature="0" />
    <path
       d="m 25.977734,109.51173 c 0,0.22222 -0.184997,0.40721 -0.406788,0.40721 h -3.257409 c -0.222285,0 -0.407388,-0.18499 -0.407388,-0.40721 v -3.25709 c 0,-0.222 0.185103,-0.40711 0.407388,-0.40711 h 3.257409 c 0.221791,0 0.406788,0.18511 0.406788,0.40711 z"
       style="fill:#32a041;fill-opacity:1;fill-rule:nonzero;stroke:none;stroke-width:0.35277775"
       id="path5674"
       inkscape:connector-curvature="0" />
    <path
       d="m 25.977734,104.62562 c 0,0.22221 -0.184997,0.40721 -0.406788,0.40721 h -3.257409 c -0.222285,0 -0.407388,-0.185 -0.407388,-0.40721 v -3.25709 c 0,-0.22201 0.185103,-0.40711 0.407388,-0.40711 h 3.257409 c 0.221791,0 0.406788,0.1851 0.406788,0.40711 z"
       style="fill:#32a041;fill-opacity:1;fill-rule:nonzero;stroke:none;stroke-width:0.35277775"
       id="path5676"
       inkscape:connector-curvature="0" />
    <path
       d="m 26.181251,93.225041 c 0,1.236803 -1.002523,2.239292 -2.239292,2.239292 -1.236733,0 -2.239327,-1.002489 -2.239327,-2.239292 0,-1.236698 1.002594,-2.239222 2.239327,-2.239222 1.236769,0 2.239292,1.002524 2.239292,2.239222"
       style="fill:#c8191e;fill-opacity:1;fill-rule:nonzero;stroke:none;stroke-width:0.35277775"
       id="path5678"
       inkscape:connector-curvature="0" />
  </g>
</svg>
